<svg width="17" height="17" viewBox="0 0 17 17" fill="none" xmlns="http://www.w3.org/2000/svg">
  <g id="bag-shopping">
    <path id="Icon"
      d="M6.49984 7.83333V4.5C6.49984 3.39543 7.39527 2.5 8.49984 2.5C9.60441 2.5 10.4998 3.39543 10.4998 4.5V7.81151M7.43317 14.5H9.5665C11.06 14.5 11.8067 14.5 12.3771 14.2093C12.8789 13.9537 13.2869 13.5457 13.5425 13.044C13.8332 12.4735 13.8332 11.7268 13.8332 10.2333V8.63333C13.8332 7.8866 13.8332 7.51323 13.6878 7.22801C13.56 6.97713 13.356 6.77316 13.1052 6.64532C12.8199 6.5 12.4466 6.5 11.6998 6.5H5.29984C4.5531 6.5 4.17973 6.5 3.89452 6.64532C3.64363 6.77316 3.43966 6.97713 3.31183 7.22801C3.1665 7.51323 3.1665 7.8866 3.1665 8.63333V10.2333C3.1665 11.7268 3.1665 12.4735 3.45715 13.044C3.71282 13.5457 4.12076 13.9537 4.62253 14.2093C5.19296 14.5 5.9397 14.5 7.43317 14.5Z"
      stroke="currentColor" stroke-width="1.33333" stroke-linecap="round" stroke-linejoin="round" />
  </g>
</svg>