<svg xmlns="http://www.w3.org/2000/svg" width="25" height="24" viewBox="0 0 25 24" fill="none">
  <path
    d="M12.6665 8V20M12.6665 7H9.13079C8.60983 7 8.1102 6.78929 7.74183 6.41421C7.37345 6.03914 7.1665 5.53043 7.1665 5C7.1665 4.46957 7.37345 3.96086 7.74183 3.58579C8.1102 3.21071 8.60983 3 9.13079 3C11.8808 3 12.6665 7 12.6665 7ZM12.6665 7H16.2022C16.7232 7 17.2228 6.78929 17.5912 6.41421C17.9596 6.03914 18.1665 5.53043 18.1665 5C18.1665 4.46957 17.9596 3.96086 17.5912 3.58579C17.2228 3.21071 16.7232 3 16.2022 3C13.4522 3 12.6665 7 12.6665 7ZM5.6665 12H19.6665V17.8C19.6665 18.9201 19.6665 19.4802 19.4485 19.908C19.2568 20.2843 18.9508 20.5903 18.5745 20.782C18.1467 21 17.5866 21 16.4665 21H8.8665C7.7464 21 7.18635 21 6.75852 20.782C6.3822 20.5903 6.07624 20.2843 5.88449 19.908C5.6665 19.4802 5.6665 18.9201 5.6665 17.8V12ZM5.2665 12H20.0665C20.6266 12 20.9066 12 21.1205 11.891C21.3087 11.7951 21.4616 11.6422 21.5575 11.454C21.6665 11.2401 21.6665 10.9601 21.6665 10.4V8.6C21.6665 8.03995 21.6665 7.75992 21.5575 7.54601C21.4616 7.35785 21.3087 7.20487 21.1205 7.10899C20.9066 7 20.6266 7 20.0665 7H5.2665C4.70645 7 4.42643 7 4.21251 7.10899C4.02435 7.20487 3.87137 7.35785 3.7755 7.54601C3.6665 7.75992 3.6665 8.03995 3.6665 8.6V10.4C3.6665 10.9601 3.6665 11.2401 3.7755 11.454C3.87137 11.6422 4.02435 11.7951 4.21251 11.891C4.42643 12 4.70645 12 5.2665 12Z"
    stroke="#F6F6F6" stroke-width="2" stroke-linecap="round" stroke-linejoin="round" />
</svg>