<svg width="23" height="24" viewBox="0 0 23 24" fill="none" xmlns="http://www.w3.org/2000/svg">
														  <path d="M7.3944 2.00012H15.3569C18.3902 2.00012 20.8548 4.60012 20.8548 7.80012V16.2001C20.8548 17.7384 20.2756 19.2136 19.2445 20.3013C18.2135 21.3891 16.815 22.0001 15.3569 22.0001H7.3944C4.36107 22.0001 1.89648 19.4001 1.89648 16.2001V7.80012C1.89648 6.26187 2.47573 4.78661 3.50679 3.6989C4.53785 2.61119 5.93626 2.00012 7.3944 2.00012ZM7.20482 4.00012C6.29977 4.00012 5.43178 4.37941 4.79182 5.05454C4.15185 5.72967 3.79232 6.64534 3.79232 7.60012V16.4001C3.79232 18.3901 5.31846 20.0001 7.20482 20.0001H15.5465C16.4515 20.0001 17.3195 19.6208 17.9595 18.9457C18.5995 18.2706 18.959 17.3549 18.959 16.4001V7.60012C18.959 5.61012 17.4328 4.00012 15.5465 4.00012H7.20482ZM16.3522 5.50012C16.6665 5.50012 16.9679 5.63182 17.1901 5.86624C17.4123 6.10066 17.5371 6.4186 17.5371 6.75012C17.5371 7.08164 17.4123 7.39959 17.1901 7.63401C16.9679 7.86843 16.6665 8.00012 16.3522 8.00012C16.038 8.00012 15.7366 7.86843 15.5144 7.63401C15.2922 7.39959 15.1673 7.08164 15.1673 6.75012C15.1673 6.4186 15.2922 6.10066 15.5144 5.86624C15.7366 5.63182 16.038 5.50012 16.3522 5.50012ZM11.3757 7.00012C12.6327 7.00012 13.8382 7.52691 14.727 8.46459C15.6159 9.40227 16.1152 10.674 16.1152 12.0001C16.1152 13.3262 15.6159 14.598 14.727 15.5357C13.8382 16.4733 12.6327 17.0001 11.3757 17.0001C10.1186 17.0001 8.9131 16.4733 8.02426 15.5357C7.13542 14.598 6.63607 13.3262 6.63607 12.0001C6.63607 10.674 7.13542 9.40227 8.02426 8.46459C8.9131 7.52691 10.1186 7.00012 11.3757 7.00012ZM11.3757 9.00012C10.6214 9.00012 9.89812 9.31619 9.36482 9.8788C8.83151 10.4414 8.5319 11.2045 8.5319 12.0001C8.5319 12.7958 8.83151 13.5588 9.36482 14.1214C9.89812 14.6841 10.6214 15.0001 11.3757 15.0001C12.1299 15.0001 12.8532 14.6841 13.3865 14.1214C13.9198 13.5588 14.2194 12.7958 14.2194 12.0001C14.2194 11.2045 13.9198 10.4414 13.3865 9.8788C12.8532 9.31619 12.1299 9.00012 11.3757 9.00012Z" fill="#F6F6F6"/>
														</svg>