<svg xmlns="http://www.w3.org/2000/svg" width="25" height="24" viewBox="0 0 25 24" fill="none">
  <path
    d="M7.33325 8V5C7.33325 3.34315 8.6764 2 10.3333 2C11.9901 2 13.3333 3.34315 13.3333 5V7.97545M18.3333 16C18.3333 17.6569 16.9901 19 15.3333 19C13.6764 19 12.3333 17.6569 12.3333 16M4.33325 19C3.22868 19 2.33325 18.1046 2.33325 17V10C2.33325 8.89543 3.22868 8 4.33325 8H16.3333C17.4378 8 18.3333 8.89543 18.3333 10M10.7333 22H19.9333C20.7733 22 21.1934 22 21.5142 21.8365C21.7965 21.6927 22.026 21.4632 22.1698 21.181C22.3333 20.8601 22.3333 20.4401 22.3333 19.6V15.4C22.3333 14.5599 22.3333 14.1399 22.1698 13.819C22.026 13.5368 21.7965 13.3073 21.5142 13.1635C21.1934 13 20.7733 13 19.9333 13H10.7333C9.89317 13 9.47313 13 9.15227 13.1635C8.87002 13.3073 8.64055 13.5368 8.49674 13.819C8.33325 14.1399 8.33325 14.5599 8.33325 15.4V19.6C8.33325 20.4401 8.33325 20.8601 8.49674 21.181C8.64055 21.4632 8.87002 21.6927 9.15227 21.8365C9.47313 22 9.89317 22 10.7333 22Z"
    stroke="#F6F6F6" stroke-width="2" stroke-linecap="round" stroke-linejoin="round" />
</svg>