<svg width="24" height="24" viewBox="0 0 24 24" fill="none" xmlns="http://www.w3.org/2000/svg">
<g id="seal-exclamation">
<path id="Icon" d="M12 8V13M19.0952 14.339L20.2482 13.186C20.6634 12.7708 20.8709 12.5633 20.9487 12.3239C21.0171 12.1134 21.0171 11.8866 20.9487 11.6761C20.8709 11.4367 20.6634 11.2292 20.2482 10.814L19.0952 9.66098C18.9139 9.47968 18.8232 9.38904 18.7584 9.28325C18.7009 9.18946 18.6586 9.08721 18.6329 8.98025C18.6039 8.85961 18.6039 8.73142 18.6039 8.47503V7.07325C18.6039 6.48618 18.6039 6.19265 18.4897 5.96841C18.3892 5.77117 18.2288 5.61081 18.0316 5.51031C17.8074 5.39606 17.5138 5.39606 16.9267 5.39606H15.525C15.2686 5.39606 15.1404 5.39606 15.0197 5.3671C14.9128 5.34142 14.8105 5.29907 14.7167 5.24159C14.611 5.17677 14.5203 5.08612 14.339 4.90482L13.186 3.75176C12.7708 3.33663 12.5633 3.12907 12.3239 3.0513C12.1134 2.9829 11.8866 2.9829 11.6761 3.0513C11.4367 3.12907 11.2292 3.33663 10.814 3.75176L9.66098 4.90482C9.47968 5.08612 9.38904 5.17677 9.28325 5.24159C9.18946 5.29907 9.08721 5.34142 8.98025 5.3671C8.85961 5.39606 8.73142 5.39606 8.47503 5.39606H7.07325C6.48618 5.39606 6.19265 5.39606 5.96841 5.51031C5.77117 5.61081 5.61081 5.77117 5.51031 5.96841C5.39606 6.19265 5.39606 6.48618 5.39606 7.07325V8.47503C5.39606 8.73142 5.39606 8.85961 5.3671 8.98025C5.34142 9.08721 5.29907 9.18946 5.24159 9.28325C5.17677 9.38904 5.08612 9.47968 4.90482 9.66098L3.75176 10.814C3.33663 11.2292 3.12907 11.4367 3.0513 11.6761C2.9829 11.8866 2.9829 12.1134 3.0513 12.3239C3.12907 12.5633 3.33663 12.7708 3.75176 13.186L4.90482 14.339C5.08612 14.5203 5.17677 14.611 5.24159 14.7167C5.29907 14.8105 5.34142 14.9128 5.3671 15.0197C5.39606 15.1404 5.39606 15.2686 5.39606 15.525V16.9267C5.39606 17.5138 5.39606 17.8074 5.51031 18.0316C5.61081 18.2288 5.77117 18.3892 5.96841 18.4897C6.19265 18.6039 6.48618 18.6039 7.07325 18.6039H8.47503C8.73142 18.6039 8.85961 18.6039 8.98025 18.6329C9.08721 18.6586 9.18946 18.7009 9.28325 18.7584C9.38904 18.8232 9.47968 18.9139 9.66098 19.0952L10.814 20.2482C11.2292 20.6634 11.4367 20.8709 11.6761 20.9487C11.8866 21.0171 12.1134 21.0171 12.3239 20.9487C12.5633 20.8709 12.7708 20.6634 13.186 20.2482L14.339 19.0952C14.5203 18.9139 14.611 18.8232 14.7167 18.7584C14.8105 18.7009 14.9128 18.6586 15.0197 18.6329C15.1404 18.6039 15.2686 18.6039 15.525 18.6039H16.9267C17.5138 18.6039 17.8074 18.6039 18.0316 18.4897C18.2288 18.3892 18.3892 18.2288 18.4897 18.0316C18.6039 17.8074 18.6039 17.5138 18.6039 16.9267V15.525C18.6039 15.2686 18.6039 15.1404 18.6329 15.0197C18.6586 14.9128 18.7009 14.8105 18.7584 14.7167C18.8232 14.611 18.9139 14.5203 19.0952 14.339Z" stroke="#121212" stroke-width="2" stroke-linecap="round" stroke-linejoin="round"/>
<path id="Icon_2" d="M12 16H12.0105" stroke="#121212" stroke-width="2" stroke-linecap="round" stroke-linejoin="round"/>
</g>
</svg>
